<?xml version="1.0" encoding="UTF-8"?>
<svg id="Capa_2" data-name="Capa 2" xmlns="http://www.w3.org/2000/svg" viewBox="0 0 107.72 107.72">
  <defs>
    <style>
      .cls-1 {
        fill: #8e4bef;
      }
    </style>
  </defs>
  <g id="Capa_1-2" data-name="Capa 1">
    <g>
      <path class="cls-1" d="M53.57,107.72C-18.01,107.85-17.71,.09,53.59,0c71.94,1.69,72.41,106.37-.02,107.72Zm38.13-26.19V27.18H16.05v54.35H91.7Z"/>
      <path class="cls-1" d="M19.52,29.05H84.09c-12.07,9.96-19.99,16.86-30.22,25.3-10.46-8.57-21.92-15.11-34.36-25.3Z"/>
      <path class="cls-1" d="M23.23,78.35c13.69-14.29,25.54-21.93,30.62-21.94,4.12-.01,14.63,8.03,27.59,21.94H23.23Z"/>
      <path class="cls-1" d="M88.44,32.31v42.91c-9.8-7.17-18.11-13.25-27.68-20.25,9.06-7.41,17.19-14.07,27.68-22.65Z"/>
      <path class="cls-1" d="M19.52,33.01c9.87,8.09,17.86,14.65,26.69,21.88-8.93,6.73-17.04,12.84-26.69,20.11V33.01Z"/>
    </g>
  </g>
</svg>