<?xml version="1.0" encoding="UTF-8"?>
<svg id="Capa_2" data-name="Capa 2" xmlns="http://www.w3.org/2000/svg" viewBox="0 0 107.72 107.72">
  <defs>
    <style>
      .cls-1 {
        fill: #8e4bef;
      }
    </style>
  </defs>
  <g id="Capa_1-2" data-name="Capa 1">
    <path class="cls-1" d="M51.23,0C52.98,0,54.74,0,56.49,0c2.01,.34,4.04,.65,6.04,1.03,22.33,4.33,36.68,17.51,43.11,39.25,1.09,3.69,1.4,7.61,2.08,11.42v4.31c-.22,1.64-.44,3.28-.67,4.91-3.16,22.09-18.66,39.44-40.29,44.92-3.51,.89-7.16,1.26-10.74,1.87h-4.31c-2.26-.35-4.52-.72-6.79-1.06C23.81,103.53,5.64,86.15,1.51,65.11,.94,62.25,.5,59.36,0,56.49c0-1.76,0-3.51,0-5.27,.35-2.09,.74-4.18,1.05-6.28C4.2,23.8,21.56,5.64,42.61,1.51,45.47,.94,48.35,.5,51.23,0Zm36.53,36.2c-.95,.72-1.34,.98-1.69,1.28-9.64,8.22-19.28,16.44-28.91,24.68-2.98,2.55-3.59,2.56-6.49,.09-9.7-8.28-19.4-16.55-29.12-24.81-.37-.31-.86-.48-1.48-.82-.04,.93-.1,1.56-.1,2.19,0,10.52,0,21.05,0,31.57,0,3.53,1.33,4.86,4.94,4.86,19.29,.01,38.59,.01,57.88,0,3.7,0,4.96-1.33,4.97-5.08,0-10.36,0-20.73,0-31.09,0-.76,0-1.53,0-2.88Zm-1.59-2.69c-2.55-1.45-62.11-1.44-64.56-.03,.66,.63,1.24,1.24,1.88,1.78,9.56,8.18,19.15,16.34,28.67,24.57,1.31,1.13,2.09,1.12,3.39,0,7.33-6.38,14.76-12.65,22.14-18.97,2.81-2.41,5.59-4.85,8.47-7.35Z"/>
  </g>
</svg>