<?xml version="1.0" encoding="UTF-8"?>
<svg id="Capa_2" data-name="Capa 2" xmlns="http://www.w3.org/2000/svg" viewBox="0 0 107.72 107.72">
  <defs>
    <style>
      .cls-1 {
        fill: #8e4bef;
      }
    </style>
  </defs>
  <g id="Capa_1-2" data-name="Capa 1">
    <path class="cls-1" d="M107.72,53.94c.12,29.63-23.97,53.65-53.94,53.77C24.52,107.84-.27,83.54,0,54.15,.29,23.41,23.1-.06,54.01,0c32.16,.06,53.61,25.3,53.7,53.94Zm-63.09,2.44c0,1.93,0,3.62,0,5.31,0,8.11-.08,16.23,.08,24.34,.02,1.25,1.06,3.5,1.77,3.56,4.15,.34,8.34,.17,12.96,.17V55.84c2.73,0,5.01,.19,7.24-.09,1-.13,2.59-1.1,2.7-1.87,.61-4.02,.83-8.1,1.25-12.83h-10.36c-.82-7.55-.68-7.62,6.01-7.9,1.4-.06,3.87-1.03,3.93-1.75,.29-3.34,.5-6.94-.57-10-.34-.99-4.66-.65-7.16-.81-1.56-.1-3.14-.08-4.7,.04-6.49,.47-11.25,4.44-12.57,10.83-.63,3.01-.68,6.14-1.01,9.42-2.04,.16-3.96,.32-6.48,.52,0,2.61,0,4.99,0,7.37q0,6.56,6.9,7.6Z"/>
  </g>
</svg>