<?xml version="1.0" encoding="UTF-8"?>
<svg id="Capa_2" data-name="Capa 2" xmlns="http://www.w3.org/2000/svg" viewBox="0 0 107.72 107.72">
  <defs>
    <style>
      .cls-1 {
        fill: #8e4bef;
      }
    </style>
  </defs>
  <g id="Capa_1-2" data-name="Capa 1">
    <path class="cls-1" d="M54.21,0c29.95,.31,53.79,24.62,53.5,54.55-.28,28.88-25.22,53.5-53.84,53.16C23.9,107.36-.36,82.89,0,53.37,.37,23.52,24.57-.3,54.21,0Zm-16.81,58.95c.65-.18,1.29-.35,1.94-.53-.32-2.25-.58-4.51-.98-6.75-.44-2.46-1.53-4.93-1.43-7.35,.35-7.99,6.25-14,14.5-15.29,7.65-1.2,14.37,1.95,16.71,7.83,2.66,6.7-.12,19.31-5.6,22.58-2.06,1.23-5.49,1.43-7.81,.65-3.03-1.02-2.72-4.17-1.91-6.96,.95-3.26,1.93-6.52,2.6-9.84,.57-2.84-.14-5.45-3.07-6.75-3.05-1.35-5.56,.21-6.84,2.63-1.25,2.37-1.68,5.27-2.01,8-.45,3.69-.17,7.47-.74,11.14-.67,4.32-2.32,8.51-2.81,12.84-.5,4.48-.11,9.07-.11,14.44,6.64-6.25,8.02-13.95,10.13-21.56,5.07,4.56,10.42,4.91,15.79,2.29,9.11-4.43,12.1-12.7,12.52-22.06,.39-8.59-3.7-15.02-11.1-19.13-10.34-5.75-24.4-3.17-32.25,5.69-4.25,4.8-6.28,10.43-5.45,16.83,.66,5.14,2.83,9.36,7.92,11.31Z"/>
  </g>
</svg>