<?xml version="1.0" encoding="UTF-8"?>
<svg id="Capa_2" data-name="Capa 2" xmlns="http://www.w3.org/2000/svg" viewBox="0 0 107.72 107.72">
  <defs>
    <style>
      .cls-1 {
        fill: #8e4bef;
      }
    </style>
  </defs>
  <g id="Capa_1-2" data-name="Capa 1">
    <g>
      <path class="cls-1" d="M53.79,107.72C24.09,107.67,.07,83.69,0,54.04-.07,24.51,24.6-.13,54.1,0c29.28,.13,53.66,24.75,53.62,54.14-.04,29.52-24.31,53.63-53.93,53.58Zm-.24-31.35c0-.29,0-.58,0-.87,6.63,0,13.28,.27,19.89-.07,8.14-.41,10.44-2.39,11-10.37,.53-7.56,.47-15.22-.07-22.78-.51-7.11-3.19-9.58-10.31-9.71-13.68-.26-27.38-.21-41.07,.03-6.1,.11-9,2.55-9.43,8.69-.59,8.39-.58,16.88-.1,25.28,.35,6.05,3.18,8.35,9.37,8.81,6.89,.51,13.82,.67,20.73,.98Z"/>
      <path class="cls-1" d="M46.3,43.4c6.1,3.17,11.8,6.13,18.22,9.47-6.27,3.28-12.03,6.3-18.22,9.54v-19.01Z"/>
    </g>
  </g>
</svg>